<svg width="876" height="776" viewBox="0 0 876 776" fill="none" xmlns="http://www.w3.org/2000/svg">
<g filter="url(#filter0_dii_1_13)">
<mask id="path-1-inside-1_1_13" fill="white">
<path fill-rule="evenodd" clip-rule="evenodd" d="M10.6738 9.77101C8 13.4511 8 18.7007 8 29.2L8.00001 594.922C8.00001 598.921 8.00001 600.921 8.47506 602.826C8.63267 603.459 8.82876 604.081 9.06224 604.689C9.76596 606.523 10.9127 608.161 13.2061 611.437L111.401 751.716C115.138 757.054 117.007 759.724 119.615 761.418C120.475 761.976 121.386 762.451 122.336 762.835C125.22 764 128.478 764 134.995 764H842.8C853.299 764 858.549 764 862.229 761.326C863.418 760.463 864.463 759.418 865.326 758.229C868 754.549 868 749.299 868 738.8V29.2C868 18.7007 868 13.4511 865.326 9.77101C864.463 8.58248 863.418 7.53728 862.229 6.67376C858.549 4 853.299 4 842.8 4H33.2C22.7007 4 17.4511 4 13.771 6.67376C12.5825 7.53728 11.5373 8.58248 10.6738 9.77101Z"/>
</mask>
<path fill-rule="evenodd" clip-rule="evenodd" d="M10.6738 9.77101C8 13.4511 8 18.7007 8 29.2L8.00001 594.922C8.00001 598.921 8.00001 600.921 8.47506 602.826C8.63267 603.459 8.82876 604.081 9.06224 604.689C9.76596 606.523 10.9127 608.161 13.2061 611.437L111.401 751.716C115.138 757.054 117.007 759.724 119.615 761.418C120.475 761.976 121.386 762.451 122.336 762.835C125.22 764 128.478 764 134.995 764H842.8C853.299 764 858.549 764 862.229 761.326C863.418 760.463 864.463 759.418 865.326 758.229C868 754.549 868 749.299 868 738.8V29.2C868 18.7007 868 13.4511 865.326 9.77101C864.463 8.58248 863.418 7.53728 862.229 6.67376C858.549 4 853.299 4 842.8 4H33.2C22.7007 4 17.4511 4 13.771 6.67376C12.5825 7.53728 11.5373 8.58248 10.6738 9.77101Z" fill="url(#paint0_linear_1_13)"/>
<path d="M8 29.2L7 29.2L8 29.2ZM10.6738 9.77101L11.4828 10.3588L11.4828 10.3588L10.6738 9.77101ZM862.229 761.326L861.641 760.517L861.641 760.517L862.229 761.326ZM865.326 758.229L864.517 757.641L864.517 757.641L865.326 758.229ZM865.326 9.77101L866.135 9.18322L866.135 9.18322L865.326 9.77101ZM862.229 6.67376L861.641 7.48278L861.641 7.48278L862.229 6.67376ZM13.771 6.67376L14.3588 7.48278L14.3588 7.48278L13.771 6.67376ZM111.401 751.716L112.22 751.142L111.401 751.716ZM119.615 761.418L119.07 762.257L119.615 761.418ZM122.336 762.835L121.961 763.762L122.336 762.835ZM8.47506 602.826L7.50475 603.068L8.47506 602.826ZM13.2061 611.437L12.3869 612.011L13.2061 611.437ZM9.06224 604.689L8.12863 605.047L9.06224 604.689ZM9 29.2C9 23.9281 9.00137 20.0545 9.3284 17.036C9.6534 14.0363 10.2904 12 11.4828 10.3588L9.86475 9.18322C8.38337 11.2222 7.68348 13.6507 7.34004 16.8206C6.99863 19.9718 7 23.9726 7 29.2H9ZM9.00001 594.922L9 29.2L7 29.2L7.00001 594.922L9.00001 594.922ZM12.3869 612.011L110.582 752.289L112.22 751.142L14.0254 610.864L12.3869 612.011ZM842.8 763H134.995V765H842.8V763ZM861.641 760.517C860 761.71 857.964 762.347 854.964 762.672C851.946 762.999 848.072 763 842.8 763V765C848.027 765 852.028 765.001 855.179 764.66C858.349 764.317 860.778 763.617 862.817 762.135L861.641 760.517ZM864.517 757.641C863.715 758.745 862.745 759.715 861.641 760.517L862.817 762.135C864.09 761.21 865.21 760.09 866.135 758.817L864.517 757.641ZM867 738.8C867 744.072 866.999 747.946 866.672 750.964C866.347 753.964 865.71 756 864.517 757.641L866.135 758.817C867.617 756.778 868.317 754.349 868.66 751.179C869.001 748.028 869 744.027 869 738.8H867ZM867 29.2V738.8H869V29.2H867ZM864.517 10.3588C865.71 12 866.347 14.0363 866.672 17.036C866.999 20.0545 867 23.9281 867 29.2H869C869 23.9726 869.001 19.9718 868.66 16.8206C868.317 13.6507 867.617 11.2222 866.135 9.18322L864.517 10.3588ZM861.641 7.48278C862.745 8.28461 863.715 9.25515 864.517 10.3588L866.135 9.18322C865.21 7.90981 864.09 6.78995 862.817 5.86474L861.641 7.48278ZM842.8 5C848.072 5 851.946 5.00137 854.964 5.3284C857.964 5.6534 860 6.29039 861.641 7.48278L862.817 5.86475C860.778 4.38337 858.349 3.68348 855.179 3.34004C852.028 2.99863 848.027 3 842.8 3V5ZM33.2 5H842.8V3H33.2V5ZM14.3588 7.48278C16 6.29039 18.0363 5.6534 21.036 5.3284C24.0545 5.00137 27.9281 5 33.2 5V3C27.9726 3 23.9718 2.99863 20.8206 3.34004C17.6507 3.68348 15.2222 4.38337 13.1832 5.86475L14.3588 7.48278ZM11.4828 10.3588C12.2846 9.25516 13.2552 8.28461 14.3588 7.48278L13.1832 5.86475C11.9098 6.78994 10.7899 7.9098 9.86475 9.18322L11.4828 10.3588ZM110.582 752.289C114.272 757.561 116.26 760.431 119.07 762.257L120.16 760.579C117.753 759.016 116.004 756.548 112.22 751.142L110.582 752.289ZM134.995 763C128.396 763 125.372 762.983 122.711 761.907L121.961 763.762C125.068 765.017 128.56 765 134.995 765V763ZM119.07 762.257C119.984 762.85 120.952 763.354 121.961 763.762L122.711 761.907C121.82 761.547 120.966 761.103 120.16 760.579L119.07 762.257ZM7.00001 594.922C7.00001 598.873 6.99317 601.016 7.50475 603.068L9.44537 602.584C9.00684 600.825 9.00001 598.969 9.00001 594.922L7.00001 594.922ZM14.0254 610.864C11.7043 607.548 10.6455 606.024 9.99585 604.331L8.12863 605.047C8.88646 607.022 10.1211 608.774 12.3869 612.011L14.0254 610.864ZM7.50475 603.068C7.67221 603.74 7.88056 604.401 8.12863 605.047L9.99585 604.331C9.77697 603.76 9.59313 603.177 9.44537 602.584L7.50475 603.068Z" fill="#A33333" mask="url(#path-1-inside-1_1_13)"/>
</g>
<defs>
<filter id="filter0_dii_1_13" x="0" y="0" width="876" height="776" filterUnits="userSpaceOnUse" color-interpolation-filters="sRGB">
<feFlood flood-opacity="0" result="BackgroundImageFix"/>
<feColorMatrix in="SourceAlpha" type="matrix" values="0 0 0 0 0 0 0 0 0 0 0 0 0 0 0 0 0 0 127 0" result="hardAlpha"/>
<feOffset dy="4"/>
<feGaussianBlur stdDeviation="4"/>
<feComposite in2="hardAlpha" operator="out"/>
<feColorMatrix type="matrix" values="0 0 0 0 0 0 0 0 0 0 0 0 0 0 0 0 0 0 0.32 0"/>
<feBlend mode="normal" in2="BackgroundImageFix" result="effect1_dropShadow_1_13"/>
<feBlend mode="normal" in="SourceGraphic" in2="effect1_dropShadow_1_13" result="shape"/>
<feColorMatrix in="SourceAlpha" type="matrix" values="0 0 0 0 0 0 0 0 0 0 0 0 0 0 0 0 0 0 127 0" result="hardAlpha"/>
<feOffset dx="-4" dy="8"/>
<feGaussianBlur stdDeviation="7"/>
<feComposite in2="hardAlpha" operator="arithmetic" k2="-1" k3="1"/>
<feColorMatrix type="matrix" values="0 0 0 0 1 0 0 0 0 1 0 0 0 0 1 0 0 0 0.8 0"/>
<feBlend mode="normal" in2="shape" result="effect2_innerShadow_1_13"/>
<feColorMatrix in="SourceAlpha" type="matrix" values="0 0 0 0 0 0 0 0 0 0 0 0 0 0 0 0 0 0 127 0" result="hardAlpha"/>
<feOffset dx="4" dy="-8"/>
<feGaussianBlur stdDeviation="2"/>
<feComposite in2="hardAlpha" operator="arithmetic" k2="-1" k3="1"/>
<feColorMatrix type="matrix" values="0 0 0 0 0 0 0 0 0 0 0 0 0 0 0 0 0 0 0.25 0"/>
<feBlend mode="normal" in2="effect2_innerShadow_1_13" result="effect3_innerShadow_1_13"/>
</filter>
<linearGradient id="paint0_linear_1_13" x1="438" y1="4" x2="438" y2="764" gradientUnits="userSpaceOnUse">
<stop stop-color="#EAEAEA"/>
<stop offset="0.494792" stop-color="#FFF6F6"/>
<stop offset="1" stop-color="#EAEAEA"/>
</linearGradient>
</defs>
</svg>
